<svg xmlns="http://www.w3.org/2000/svg" width="25" height="26" fill="none" viewBox="0 0 25 26">
  <g clip-path="url(#a)">
    <path fill="#8D5CF6" fill-rule="evenodd" d="M-.419 5.717A3.345 3.345 0 0 1 .723 3.852a3.2 3.2 0 0 1 2.027-.727h19.5a3.2 3.2 0 0 1 2.026.727 3.345 3.345 0 0 1 1.143 1.865L12.5 13.815-.419 5.717ZM-.5 7.62v11.84l9.43-5.93L-.5 7.62Zm10.987 6.888L-.19 21.22a3.32 3.32 0 0 0 1.2 1.39 3.19 3.19 0 0 0 1.74.515h19.5c.616 0 1.218-.179 1.738-.517.52-.337.937-.82 1.2-1.39l-10.676-6.711-2.012 1.261-2.013-1.261v.001Zm5.583-.976 9.43 5.928V7.62l-9.43 5.91v.002Z" clip-rule="evenodd"/>
  </g>
  <defs>
    <clipPath id="a">
      <path fill="#fff" d="M.5 0h24v26H.5z"/>
    </clipPath>
  </defs>
</svg>
