<svg xmlns="http://www.w3.org/2000/svg" width="25" height="24" fill="none" viewBox="0 0 25 24">
  <g clip-path="url(#a)">
    <path fill="#8D5CF6" d="M19.348 12.352a1.2 1.2 0 0 0-1.697 0l-1.912 1.912c-.887-.263-2.542-.864-3.59-1.912-1.05-1.05-1.65-2.704-1.914-3.59l1.913-1.913a1.198 1.198 0 0 0 0-1.697l-4.8-4.8a1.199 1.199 0 0 0-1.697 0L2.397 3.606a2.398 2.398 0 0 0-.703 1.722c.027 1.709.48 7.644 5.157 12.322 4.678 4.677 10.613 5.128 12.323 5.157h.034c.633 0 1.232-.25 1.686-.703l3.254-3.254a1.197 1.197 0 0 0 0-1.697l-4.8-4.801Zm-.152 8.054c-1.498-.025-6.622-.427-10.648-4.454-4.039-4.04-4.43-9.181-4.454-10.649L6.5 2.897 9.603 6 8.051 7.552a1.2 1.2 0 0 0-.326 1.094c.029.138.733 3.41 2.725 5.402 1.992 1.993 5.264 2.697 5.402 2.726a1.19 1.19 0 0 0 1.095-.326l1.553-1.551L21.603 18l-2.407 2.406Z"/>
  </g>
  <defs>
    <clipPath id="a">
      <path fill="#fff" d="M.5 0h24v24H.5z"/>
    </clipPath>
  </defs>
</svg>
