<svg xmlns="http://www.w3.org/2000/svg" width="132" height="23" fill="none" viewBox="0 0 132 23">
  <g clip-path="url(#a)">
    <path fill="#F3CD03" d="M21.097 8.419a.918.918 0 0 0-.797-.62l-5.229-.416-2.262-5.009a.916.916 0 0 0-1.672 0l-2.263 5.01-5.229.415a.917.917 0 0 0-.567 1.57l3.864 3.768-1.367 5.918a.917.917 0 0 0 1.404.97l4.994-3.33 4.994 3.33a.917.917 0 0 0 1.392-1.015l-1.678-5.87 4.16-3.744a.919.919 0 0 0 .256-.977Zm27.014 0a.918.918 0 0 0-.796-.62l-5.229-.416-2.263-5.009a.916.916 0 0 0-1.67 0l-2.264 5.01-5.229.415a.917.917 0 0 0-.567 1.57l3.864 3.768-1.367 5.918a.917.917 0 0 0 1.403.97l4.995-3.33 4.994 3.33a.917.917 0 0 0 1.392-1.015l-1.678-5.87 4.16-3.744a.919.919 0 0 0 .255-.977Zm27.012 0a.918.918 0 0 0-.796-.62l-5.23-.416-2.262-5.009a.915.915 0 0 0-1.672 0l-2.262 5.01-5.23.415a.917.917 0 0 0-.567 1.57l3.864 3.768-1.367 5.918a.917.917 0 0 0 1.404.97l4.994-3.33 4.994 3.33a.917.917 0 0 0 1.392-1.015l-1.678-5.87 4.16-3.744a.919.919 0 0 0 .256-.977Zm27.013 0a.916.916 0 0 0-.796-.62l-5.229-.416-2.263-5.009a.916.916 0 0 0-1.67 0l-2.264 5.01-5.229.415a.917.917 0 0 0-.568 1.57l3.865 3.768-1.367 5.918a.917.917 0 0 0 1.403.97l4.995-3.33 4.994 3.33a.917.917 0 0 0 1.391-1.015l-1.677-5.87 4.16-3.744a.917.917 0 0 0 .255-.977Zm12.861 4.719-1.366 5.918a.91.91 0 0 0 .37.964.917.917 0 0 0 1.032.006l4.995-3.33 4.994 3.33a.915.915 0 0 0 1.049-.023.92.92 0 0 0 .342-.991l-1.677-5.87 4.16-3.745a.91.91 0 0 0 .255-.976.91.91 0 0 0-.796-.62l-5.229-.416-2.263-5.01a.91.91 0 0 0-.835-.541.914.914 0 0 0-.836.542l-2.263 5.009-5.229.415a.916.916 0 0 0-.568 1.571l3.865 3.767Zm2.617-3.968a.92.92 0 0 0 .763-.537l1.651-3.652 1.65 3.652a.908.908 0 0 0 .763.537l3.643.29-3 2.7a.919.919 0 0 0-.269.934l1.149 4.022-3.426-2.285a.916.916 0 0 0-1.018 0l-3.581 2.387.964-4.17a.924.924 0 0 0-.254-.862l-2.786-2.717 3.751-.299Z"/>
  </g>
  <defs>
    <clipPath id="a">
      <path fill="#fff" d="M.966 0h130.068v22.014H.966z"/>
    </clipPath>
  </defs>
</svg>
